<?xml version="1.0" standalone="no"?>
<!DOCTYPE svg PUBLIC "-//W3C//DTD SVG 20010904//EN"
 "http://www.w3.org/TR/2001/REC-SVG-20010904/DTD/svg10.dtd">
<svg version="1.0" xmlns="http://www.w3.org/2000/svg"
 width="2528.000000pt" height="2784.000000pt" viewBox="0 0 2528.000000 2784.000000"
 preserveAspectRatio="xMidYMid meet">

<g transform="translate(0.000000,2784.000000) scale(0.100000,-0.100000)"
fill="#000000" stroke="none">
<path d="M12098 22370 c-26 -4 -60 -17 -75 -28 -16 -11 -38 -23 -51 -27 -13
-4 -21 -9 -18 -12 3 -4 -9 -17 -26 -30 -18 -12 -26 -23 -20 -23 18 0 -19 -36
-43 -43 -11 -3 -32 -8 -47 -11 -17 -4 -29 -16 -36 -36 -6 -16 -17 -31 -24 -31
-53 -6 -75 -5 -85 3 -7 6 -16 7 -20 5 -5 -3 -36 -9 -68 -12 -69 -8 -95 -19
-95 -41 0 -26 -52 -37 -178 -38 -93 -1 -125 -5 -131 -15 -8 -12 -27 -15 -81
-11 -8 0 -87 -2 -175 -5 -158 -5 -160 -6 -227 -40 -37 -19 -73 -35 -81 -35 -8
0 -22 -11 -31 -25 -9 -14 -25 -25 -36 -25 -10 0 -22 -5 -26 -11 -4 -7 -22 -9
-46 -6 -26 3 -43 1 -52 -9 -8 -8 -21 -14 -29 -14 -8 0 -20 -6 -26 -14 -7 -8
-25 -12 -46 -9 -28 3 -41 -2 -61 -22 -14 -14 -29 -25 -34 -25 -6 0 -10 -7 -10
-15 0 -18 -12 -19 -28 -3 -9 9 -12 8 -12 -6 0 -11 -5 -16 -13 -13 -7 3 -24 -4
-38 -14 -13 -10 -38 -19 -56 -19 -17 0 -38 -6 -45 -13 -16 -16 -66 -31 -92
-28 -12 2 -16 -1 -11 -9 5 -8 3 -11 -6 -8 -8 3 -25 -3 -38 -13 -13 -11 -32
-19 -43 -19 -10 0 -21 -6 -24 -14 -6 -16 -43 -32 -98 -41 -45 -7 -146 -53
-146 -66 0 -5 -7 -9 -16 -9 -9 0 -33 -13 -54 -30 -21 -16 -43 -30 -49 -30 -6
0 -19 -4 -29 -9 -9 -6 -51 -26 -92 -46 -41 -21 -82 -43 -91 -51 -8 -8 -22 -14
-31 -14 -8 0 -26 -8 -39 -17 -13 -10 -35 -24 -49 -32 -71 -41 -183 -113 -196
-125 -8 -8 -23 -18 -35 -21 -11 -4 -18 -9 -15 -13 4 -3 -13 -12 -36 -20 -24
-8 -50 -23 -59 -34 -9 -10 -43 -32 -75 -47 -33 -16 -73 -43 -91 -60 -18 -17
-39 -28 -46 -25 -7 2 -37 -11 -65 -31 -28 -19 -56 -35 -62 -35 -5 0 -10 -4
-10 -10 0 -5 -9 -10 -20 -10 -11 0 -20 -4 -20 -10 0 -5 -5 -10 -11 -10 -13 0
-90 -54 -131 -92 -17 -16 -36 -28 -43 -28 -6 0 -33 -20 -58 -45 -25 -24 -57
-47 -71 -51 -14 -3 -39 -23 -57 -45 -17 -21 -38 -39 -47 -39 -8 0 -25 -11 -38
-25 -13 -14 -27 -25 -32 -25 -5 0 -15 -7 -22 -15 -7 -8 -21 -15 -30 -15 -10 0
-20 -4 -22 -8 -1 -5 -39 -36 -84 -70 -44 -34 -99 -80 -121 -102 -23 -22 -46
-40 -52 -40 -6 0 -32 -22 -59 -50 -27 -27 -54 -50 -60 -50 -7 0 -44 -31 -83
-69 -39 -37 -82 -74 -96 -82 -13 -7 -33 -25 -43 -39 -10 -14 -37 -43 -61 -65
-23 -22 -76 -74 -118 -115 -43 -41 -124 -119 -182 -173 -57 -54 -107 -101
-111 -105 -19 -18 -147 -172 -173 -207 -16 -22 -50 -60 -75 -85 -25 -25 -67
-73 -95 -105 -27 -32 -85 -95 -128 -138 -42 -43 -91 -100 -109 -126 -17 -25
-41 -57 -53 -71 -13 -14 -36 -49 -51 -79 -16 -30 -41 -67 -55 -82 -15 -16 -65
-86 -113 -156 -48 -71 -100 -146 -116 -168 -16 -22 -45 -69 -63 -105 -77 -147
-97 -183 -114 -198 -43 -39 -106 -126 -164 -223 -34 -57 -72 -117 -84 -134
-22 -30 -175 -366 -175 -385 0 -6 -4 -19 -10 -30 -6 -11 -14 -28 -19 -39 -6
-10 -8 -27 -6 -37 3 -11 -3 -33 -13 -51 -9 -17 -35 -67 -56 -110 -22 -43 -51
-94 -66 -113 -15 -19 -32 -57 -39 -85 -7 -27 -21 -55 -32 -63 -12 -8 -19 -25
-19 -47 0 -18 -4 -35 -10 -37 -5 -1 -11 -26 -13 -53 -2 -28 -6 -55 -9 -60 -3
-6 -9 -30 -13 -55 -4 -25 -14 -52 -21 -61 -8 -9 -19 -44 -25 -79 -5 -34 -19
-80 -29 -101 -11 -21 -20 -45 -20 -53 0 -10 -6 -13 -15 -10 -12 5 -15 -3 -16
-35 -1 -23 -3 -45 -4 -51 -1 -5 -3 -17 -4 -26 0 -8 -5 -13 -10 -10 -5 3 -14
-30 -20 -74 -15 -101 -39 -194 -51 -198 -6 -2 -10 -15 -10 -28 0 -13 -4 -24
-10 -24 -5 0 -12 -15 -16 -34 -4 -23 -10 -33 -19 -30 -10 4 -13 -10 -14 -56 0
-34 -3 -65 -6 -71 -3 -5 -2 -16 3 -25 10 -17 -5 -84 -19 -84 -10 0 -23 -50
-20 -78 2 -13 -4 -34 -13 -47 -8 -13 -20 -50 -25 -83 -9 -55 -28 -102 -41
-102 -3 0 -4 -15 -2 -33 2 -22 -2 -39 -12 -50 -9 -8 -16 -25 -16 -36 0 -11 -4
-23 -10 -26 -5 -3 -10 -12 -10 -18 0 -7 4 -6 10 3 8 11 10 7 8 -18 -1 -19 -6
-36 -10 -38 -4 -3 -8 -16 -8 -29 0 -18 4 -23 15 -19 13 5 14 2 5 -21 -5 -14
-10 -106 -10 -204 0 -97 -4 -181 -9 -186 -8 -9 -15 -81 -24 -245 -2 -25 -6
-50 -9 -55 -6 -11 -12 -55 -8 -67 1 -5 4 -12 5 -18 1 -5 4 -13 5 -17 1 -5 1
-23 0 -42 -1 -19 4 -37 12 -42 8 -6 9 -12 3 -16 -5 -5 -10 -17 -9 -28 0 -11
-3 -28 -8 -37 -4 -9 -4 -19 1 -22 4 -3 6 -17 3 -31 -3 -16 2 -33 12 -44 10
-11 13 -21 7 -22 -5 -2 -12 -16 -15 -31 -2 -15 -7 -32 -10 -37 -4 -5 -2 -21 3
-34 7 -19 6 -28 -4 -37 -17 -14 -10 -90 9 -102 8 -5 7 -8 -1 -8 -17 0 -16 -15
1 -33 9 -8 12 -24 9 -36 -3 -11 -1 -21 4 -21 15 0 7 -141 -9 -151 -19 -12 -18
-60 1 -56 11 1 16 -7 16 -25 1 -15 9 -36 18 -46 10 -11 15 -26 11 -36 -4 -11
-1 -16 10 -16 17 0 20 -22 7 -55 -5 -11 -4 -25 1 -32 14 -17 20 -93 8 -93 -6
0 -10 6 -10 13 0 6 -5 4 -11 -6 -8 -14 -8 -22 1 -30 10 -9 11 -9 6 1 -4 6 -2
12 3 12 6 0 11 -7 11 -15 0 -8 -5 -15 -11 -15 -6 0 -8 -9 -4 -20 3 -11 2 -20
-3 -20 -14 0 -8 -156 7 -173 6 -8 13 -35 14 -59 2 -24 6 -48 9 -53 3 -6 5 -22
4 -37 -1 -16 2 -28 6 -28 11 0 -2 -33 -18 -46 -11 -9 -10 -14 6 -29 21 -19 27
-65 9 -65 -8 0 -8 -5 1 -15 7 -8 10 -22 6 -30 -3 -8 0 -15 6 -15 9 0 9 -3 1
-11 -6 -6 -9 -18 -6 -26 3 -8 0 -19 -8 -24 -8 -5 -9 -9 -3 -9 6 0 10 -12 8
-27 -1 -15 0 -32 4 -38 12 -18 10 -34 -2 -29 -7 3 -13 -2 -13 -11 0 -8 4 -15
9 -15 5 0 7 -4 4 -8 -2 -4 -1 -14 4 -22 5 -8 3 -25 -6 -42 -8 -16 -12 -33 -8
-39 3 -6 -2 -16 -12 -23 -11 -9 -13 -15 -6 -20 8 -5 8 -15 2 -32 -6 -14 -10
-38 -10 -53 0 -15 -5 -32 -11 -38 -11 -11 -2 -63 12 -63 5 0 9 -8 9 -18 0 -11
11 -31 24 -47 13 -15 30 -46 37 -69 7 -22 17 -44 23 -47 5 -4 10 -38 10 -76 1
-37 5 -74 9 -81 5 -6 5 -17 2 -22 -4 -6 0 -23 8 -39 10 -20 13 -49 10 -93 -3
-34 1 -115 7 -178 11 -107 14 -120 53 -184 22 -37 45 -73 51 -80 15 -15 33
-53 50 -103 13 -37 66 -103 83 -103 8 0 43 -42 43 -52 0 -5 9 -21 19 -36 11
-15 27 -58 37 -97 16 -66 24 -82 67 -123 24 -23 63 -100 70 -140 7 -36 28 -62
49 -62 7 0 24 -21 38 -47 14 -26 32 -55 40 -64 8 -9 24 -28 35 -43 11 -14 47
-54 81 -88 33 -35 66 -73 73 -86 7 -12 17 -20 23 -16 7 4 8 3 4 -5 -12 -18 4
-51 24 -51 23 0 70 -59 70 -89 0 -24 62 -144 91 -177 11 -11 19 -24 19 -30 0
-5 14 -25 31 -44 17 -19 44 -64 61 -100 16 -36 35 -74 40 -85 25 -47 33 -60
39 -65 3 -3 11 -20 18 -37 8 -18 18 -33 23 -33 5 0 14 -14 19 -30 6 -17 14
-30 18 -30 5 0 18 -20 31 -45 13 -25 38 -61 57 -80 18 -19 33 -42 33 -52 0
-14 70 -126 90 -143 3 -3 17 -27 30 -53 14 -27 33 -53 43 -58 9 -5 17 -15 17
-22 0 -7 12 -23 25 -36 14 -13 25 -29 25 -37 0 -8 5 -14 10 -14 6 0 10 -5 10
-12 0 -20 51 -79 62 -72 7 5 9 -3 5 -22 -4 -22 2 -36 29 -68 19 -22 34 -45 34
-52 0 -7 7 -19 15 -27 8 -8 25 -40 39 -70 13 -31 36 -66 50 -78 14 -12 26 -30
26 -39 0 -17 94 -120 110 -120 5 0 10 -13 10 -29 0 -23 12 -40 52 -75 29 -25
60 -46 69 -46 10 0 26 -18 39 -45 22 -46 81 -105 104 -105 15 0 56 -62 56 -85
0 -19 90 -116 102 -109 12 8 48 -25 48 -43 0 -15 91 -113 106 -113 12 0 61
-46 99 -95 17 -20 55 -57 86 -80 30 -24 71 -63 89 -87 18 -24 49 -54 69 -66
20 -13 52 -44 71 -69 19 -25 59 -64 90 -86 30 -22 74 -61 97 -87 23 -26 56
-53 73 -60 16 -7 30 -18 30 -24 0 -6 30 -36 67 -66 37 -30 102 -89 145 -130
43 -41 92 -82 108 -91 17 -9 46 -30 66 -48 20 -17 41 -28 45 -25 5 3 9 0 9 -6
0 -6 3 -9 8 -7 11 7 47 -9 47 -20 0 -6 14 -22 31 -36 27 -23 34 -24 49 -13 19
13 48 3 105 -37 13 -9 39 -17 56 -17 18 0 38 -8 49 -20 10 -11 24 -20 32 -20
7 0 13 -4 13 -10 0 -16 43 -50 63 -50 20 0 107 -58 107 -71 0 -20 46 -50 68
-44 16 4 29 -2 45 -20 55 -63 131 -135 141 -135 6 0 28 -11 48 -25 21 -14 58
-28 83 -32 25 -3 48 -10 51 -14 3 -5 15 -9 28 -9 12 0 27 -5 32 -10 34 -34
324 -82 514 -85 52 -1 150 -7 218 -14 123 -11 145 -10 297 20 33 6 69 13 81
15 11 2 26 15 34 28 7 14 24 30 39 36 33 14 85 59 77 67 -3 3 -16 11 -28 17
-19 10 -23 20 -22 54 1 42 -11 53 -33 31 -18 -18 -43 -3 -43 24 0 30 -14 42
-65 56 -22 6 -67 24 -99 41 -32 16 -69 30 -81 30 -11 0 -39 8 -61 19 -21 10
-77 30 -124 45 -47 15 -114 36 -150 48 -36 11 -91 33 -124 49 -67 33 -73 35
-78 14 -2 -13 -9 -12 -35 8 -18 13 -30 27 -26 30 3 4 1 7 -5 7 -20 0 -134 82
-183 131 -26 26 -70 58 -98 70 -28 13 -51 27 -51 31 0 5 -7 8 -15 8 -8 0 -15
5 -15 10 0 6 -10 20 -21 31 -17 17 -23 18 -29 8 -7 -10 -11 -10 -24 0 -9 7
-13 17 -10 22 3 5 -7 20 -22 34 -20 19 -38 25 -71 25 -31 0 -48 6 -60 20 -10
11 -22 20 -27 20 -14 0 -56 53 -56 73 0 9 -4 17 -10 17 -5 0 -10 -5 -10 -12 0
-11 -15 -2 -15 10 -2 21 -18 51 -30 56 -8 3 -17 21 -21 41 -5 28 -23 51 -80
103 -41 36 -74 70 -74 75 0 13 -22 31 -53 45 -16 7 -31 20 -34 30 -2 10 -21
29 -41 42 -61 41 -167 151 -207 215 -21 33 -51 79 -67 102 -15 23 -31 56 -34
73 -5 21 -11 29 -20 26 -8 -3 -28 -3 -45 1 -26 5 -30 10 -26 29 3 17 -3 28
-19 39 -16 10 -24 25 -24 43 0 23 -8 33 -42 52 -58 32 -118 89 -118 110 0 10
-16 34 -35 53 -19 19 -35 40 -35 46 0 6 -18 23 -40 37 -22 15 -40 31 -40 35 0
5 -8 17 -17 27 -30 29 -53 70 -53 92 0 23 -97 122 -143 146 -15 8 -27 19 -27
24 0 5 -13 24 -28 42 -66 77 -114 202 -126 325 -7 68 -6 73 16 87 21 14 29 14
73 1 46 -14 105 -58 105 -78 0 -5 15 -30 32 -55 18 -26 33 -48 34 -50 0 -1 33
-14 73 -28 52 -19 75 -23 85 -15 9 7 31 1 82 -24 38 -19 89 -42 114 -50 209
-68 257 -95 319 -187 19 -28 37 -42 54 -44 16 -1 40 -18 59 -41 18 -21 45 -50
59 -65 25 -25 83 -48 123 -48 11 0 38 -19 60 -43 53 -56 105 -87 146 -87 44 0
136 -28 150 -45 7 -8 17 -15 23 -15 16 0 199 -92 217 -109 32 -31 96 -78 127
-94 18 -10 56 -39 85 -67 29 -27 64 -54 78 -60 25 -11 45 -36 94 -123 24 -42
36 -52 113 -87 50 -24 94 -38 104 -35 26 9 83 -9 108 -34 11 -11 29 -21 39
-21 11 0 45 -13 78 -29 32 -15 91 -34 129 -41 39 -7 86 -23 106 -36 44 -27
105 -48 189 -65 36 -7 82 -23 102 -36 21 -12 46 -23 57 -23 11 0 22 -4 25 -9
4 -5 41 -26 84 -46 42 -21 131 -63 197 -95 291 -140 357 -156 599 -146 83 3
169 8 191 10 22 3 123 7 225 10 102 4 199 8 215 10 17 3 57 7 90 10 104 11
461 103 527 137 10 5 25 9 35 9 9 0 13 3 9 7 -4 4 -44 8 -89 9 -80 2 -342 46
-382 64 -11 6 -36 12 -55 15 -50 8 -70 15 -70 25 0 17 -59 50 -100 55 -24 3
-47 8 -52 11 -6 4 -65 6 -133 5 -217 -2 -369 28 -550 109 -54 25 -92 32 -100
20 -3 -5 -19 -10 -35 -10 -16 0 -40 -4 -54 -10 -26 -9 -161 -24 -207 -21 -16
1 -35 -10 -54 -29 -25 -26 -33 -29 -67 -23 -25 3 -48 1 -64 -7 -21 -12 -28
-11 -52 7 -15 11 -40 23 -57 27 -16 3 -35 8 -42 9 -7 2 -20 11 -31 20 -10 9
-23 17 -28 17 -5 1 -22 11 -38 24 -29 24 -31 52 -4 60 69 20 206 47 231 46 71
-4 77 -2 74 28 -5 41 -16 60 -81 147 -73 96 -157 180 -208 206 -41 21 -191 67
-253 79 -46 8 -110 39 -175 85 -53 38 -140 85 -156 85 -17 0 -89 42 -122 71
-15 14 -46 38 -67 52 -22 15 -51 44 -65 64 -14 20 -54 56 -90 80 -36 24 -78
56 -95 72 -16 16 -54 45 -84 66 -30 21 -66 51 -80 68 -52 62 -77 85 -99 92
-12 3 -22 12 -22 18 0 7 -21 27 -45 45 -24 19 -47 42 -50 52 -3 10 -25 27 -49
38 -28 14 -47 31 -55 50 -7 17 -21 32 -32 35 -11 3 -17 11 -14 19 3 8 -18 39
-51 73 -30 33 -65 79 -76 102 -11 24 -23 43 -27 43 -4 0 -17 18 -30 40 -12 22
-26 40 -31 40 -5 0 -12 10 -16 23 -4 12 -17 35 -30 50 -13 16 -24 33 -24 39 0
6 -10 25 -23 42 -12 17 -29 44 -37 59 -8 16 -34 47 -57 70 -24 23 -46 51 -49
62 -10 29 -85 136 -100 142 -8 3 -14 11 -14 18 0 7 -4 15 -9 17 -10 4 -81 147
-81 164 0 6 -11 22 -25 35 -13 13 -25 29 -25 35 0 6 -9 19 -20 29 -11 10 -20
24 -20 31 0 18 -40 84 -51 84 -5 0 -9 6 -9 14 0 8 -17 28 -37 45 -26 22 -38
40 -38 58 -1 20 -6 27 -23 28 -31 2 -40 15 -18 27 17 10 17 11 -5 22 -13 6
-25 20 -27 31 -5 36 -35 95 -47 95 -7 0 -18 13 -25 29 -6 16 -18 32 -25 34 -7
3 -18 26 -26 51 -7 25 -19 46 -26 46 -13 0 -17 12 -14 37 2 18 -58 146 -81
170 -11 12 -18 26 -14 31 7 12 -15 82 -26 82 -5 0 -6 5 -3 10 4 6 -5 35 -19
66 -14 31 -26 61 -26 66 0 5 -10 30 -22 56 -12 26 -22 55 -23 65 -1 11 -6 22
-11 25 -5 4 -11 18 -12 32 -2 14 -10 32 -18 41 -8 8 -18 40 -24 69 -6 30 -19
63 -30 75 -11 12 -20 28 -20 36 0 8 -9 31 -20 52 -11 20 -20 49 -20 64 -1 25
-2 26 -14 11 -19 -25 -21 -23 -22 24 -2 103 -5 127 -18 140 -7 8 -17 30 -21
49 -4 19 -14 43 -21 54 -8 11 -14 26 -14 33 0 8 -11 27 -25 44 -14 16 -25 41
-25 54 0 14 -9 37 -20 53 -12 15 -23 47 -25 71 -3 24 -11 58 -20 76 -8 17 -17
71 -21 120 -3 49 -12 118 -20 154 -7 36 -19 119 -25 185 -13 135 -18 833 -6
940 8 72 23 232 31 320 10 113 35 273 50 315 9 25 16 58 16 73 0 15 6 38 14
50 7 12 17 46 20 76 4 30 13 66 20 80 7 14 16 46 20 71 4 24 13 51 21 60 7 8
14 20 14 25 3 29 15 46 45 60 48 23 73 64 107 173 16 53 36 111 43 127 12 26
31 87 116 365 20 65 29 102 55 215 15 64 52 174 65 190 4 6 13 34 21 63 7 28
16 52 21 52 4 0 8 9 8 20 0 10 18 38 41 62 48 50 93 114 103 144 3 12 39 49
79 83 39 34 83 75 96 91 13 17 28 30 35 30 6 0 22 14 36 30 14 16 58 64 97
107 40 43 73 81 73 86 0 4 9 16 21 28 11 11 22 29 24 40 7 36 62 105 86 106
12 1 26 8 30 15 4 8 34 31 66 53 32 22 60 42 63 46 9 11 95 57 120 64 14 4 48
24 75 44 28 20 84 59 125 86 126 83 273 191 306 224 16 17 33 31 36 31 3 0 37
30 75 66 51 50 91 77 163 111 52 25 102 51 110 58 8 6 44 23 80 38 157 61 217
95 267 152 26 30 52 55 57 55 5 0 24 11 42 25 18 14 37 25 43 25 5 0 27 20 48
45 30 35 45 45 73 46 19 2 46 8 60 15 76 39 132 56 195 60 51 3 74 10 87 23
20 23 82 35 130 26 25 -5 40 -1 58 13 41 32 95 45 159 37 41 -5 74 -2 115 10
42 12 61 14 69 6 6 -6 21 -11 33 -11 11 0 38 -11 58 -25 l37 -25 24 27 c13 16
25 38 25 50 0 28 75 135 132 189 27 26 62 47 93 57 151 46 199 56 292 61 l101
5 40 -43 c22 -24 45 -60 51 -80 14 -52 59 -126 76 -126 8 0 23 -17 34 -38 18
-35 51 -73 51 -58 0 3 9 -3 20 -14 11 -11 33 -20 48 -20 15 0 33 -5 40 -12 22
-22 114 -12 173 19 30 15 55 31 57 35 2 4 36 14 77 23 75 17 109 39 125 80 6
15 26 29 57 41 77 29 123 61 123 87 0 12 4 28 8 34 11 18 102 43 128 37 12 -3
52 6 90 22 64 25 72 26 126 15 43 -9 74 -9 118 -1 33 6 84 10 113 9 103 -3
367 35 367 53 0 4 18 8 40 8 28 0 45 6 60 23 19 20 33 23 153 28 158 7 197 5
347 -16 187 -27 330 -31 372 -11 31 15 49 16 139 7 57 -5 138 -16 179 -24 41
-8 97 -15 123 -16 26 0 51 -2 55 -5 19 -12 94 -15 151 -8 47 7 71 6 90 -4 27
-13 196 -22 208 -11 3 4 12 2 19 -4 7 -5 48 -25 92 -43 85 -35 120 -64 167
-138 16 -26 43 -53 62 -62 19 -9 38 -28 44 -43 19 -51 58 -92 99 -104 39 -12
76 -43 118 -98 17 -22 32 -31 53 -31 40 0 85 -24 92 -50 5 -18 13 -20 81 -20
74 0 75 -1 101 -34 26 -34 28 -35 96 -34 52 0 74 -4 88 -16 27 -25 16 -56 -20
-56 -16 0 -29 -4 -29 -10 0 -11 0 -11 45 -15 17 -2 35 -4 40 -6 6 -1 22 1 36
5 21 6 32 2 51 -17 14 -14 28 -32 31 -40 3 -9 24 -16 56 -19 28 -3 59 -12 69
-22 10 -9 27 -16 38 -16 10 0 33 -9 50 -19 25 -15 66 -27 124 -36 3 0 10 -3
15 -6 6 -4 26 -10 45 -14 19 -4 42 -16 50 -26 10 -13 34 -22 68 -26 28 -3 52
-10 52 -14 0 -5 6 -9 14 -9 8 0 22 -7 30 -16 9 -8 16 -13 16 -10 0 19 98 -73
115 -108 11 -22 23 -43 26 -46 3 -3 12 -16 18 -29 11 -19 18 -22 43 -17 32 6
88 -26 88 -52 0 -21 26 -42 53 -42 30 0 68 -37 92 -90 14 -31 24 -40 42 -40
13 0 22 -4 19 -9 -4 -5 2 -7 13 -4 26 7 64 -56 63 -107 0 -22 5 -43 11 -47 7
-5 25 -33 41 -63 16 -30 37 -66 46 -80 9 -14 34 -52 55 -85 21 -33 50 -72 63
-87 23 -24 26 -26 46 -12 25 16 47 6 69 -32 44 -73 74 -113 87 -114 46 -2 96
-90 108 -193 6 -40 16 -87 24 -103 8 -16 18 -44 21 -61 8 -39 59 -116 128
-192 27 -30 52 -65 55 -78 4 -13 9 -23 13 -23 4 0 13 -10 18 -22 12 -25 99
-129 108 -128 26 1 35 -2 35 -14 0 -8 8 -17 18 -20 12 -4 23 -24 31 -54 11
-44 58 -112 78 -112 4 0 26 -16 48 -36 67 -60 180 -98 262 -87 28 4 52 0 74
-11 36 -18 70 -20 115 -7 21 6 36 5 49 -5 10 -8 27 -14 37 -14 10 0 26 -4 36
-10 9 -5 29 -14 44 -20 20 -7 30 -20 39 -52 7 -24 20 -54 30 -68 10 -14 26
-53 38 -85 11 -33 26 -76 34 -95 8 -20 15 -70 16 -116 0 -71 16 -191 37 -281
16 -70 36 -133 42 -133 17 0 68 58 80 91 6 19 12 60 12 90 0 30 7 82 16 114 8
33 19 94 23 135 5 41 23 116 41 165 27 73 34 111 40 205 6 102 23 210 51 320
6 26 20 43 56 66 27 18 57 48 68 69 11 21 29 43 40 49 52 29 75 49 75 66 0 10
7 25 15 34 18 18 19 26 3 26 -7 0 -33 18 -57 40 -25 22 -48 40 -52 40 -4 0
-15 24 -25 53 -9 28 -20 57 -24 62 -12 15 -5 82 10 100 10 12 25 14 71 9 33
-4 59 -3 59 2 0 19 77 34 110 23 26 -9 35 -9 47 3 13 14 12 16 -10 22 -31 7
-42 38 -25 65 17 28 29 26 53 -9 11 -16 27 -30 36 -30 9 0 22 -13 29 -29 6
-16 19 -32 27 -35 46 -18 73 -54 100 -135 19 -58 38 -96 63 -121 95 -101 119
-166 94 -249 -8 -25 -14 -59 -14 -74 0 -16 -4 -26 -8 -23 -5 3 -18 -2 -30 -10
-23 -16 -31 -67 -12 -79 17 -11 12 -82 -7 -89 -9 -4 -21 -1 -26 6 -6 9 -7 8
-3 -5 3 -11 9 -31 12 -45 9 -38 23 -53 48 -50 11 2 66 -1 120 -5 97 -8 100 -8
119 15 12 16 20 19 24 11 2 -7 10 -13 17 -13 13 0 64 58 84 96 19 36 24 116
12 194 -6 41 -18 124 -25 185 -8 60 -19 123 -24 140 -5 16 -12 48 -16 70 -8
53 -44 153 -67 187 -10 14 -18 32 -18 40 0 14 -32 69 -91 155 -16 23 -29 44
-29 48 0 3 -5 11 -10 18 -23 27 -70 103 -70 113 0 5 -13 23 -30 39 -16 16 -30
34 -30 41 0 6 -8 22 -18 35 -10 13 -24 40 -32 59 -7 19 -26 53 -42 75 -16 22
-39 55 -51 74 -12 19 -44 46 -72 60 -72 37 -125 74 -125 87 0 26 -50 57 -92
58 -49 1 -69 11 -62 30 3 8 -5 16 -21 20 -15 4 -23 11 -19 18 4 6 1 9 -7 6 -7
-2 -26 8 -42 24 -17 15 -34 28 -38 28 -16 0 -63 85 -66 119 -1 18 -11 43 -21
55 -10 11 -29 38 -41 59 -13 21 -33 40 -47 43 -28 7 -114 113 -114 141 0 40
-14 63 -51 89 -21 14 -60 58 -86 98 -27 39 -50 73 -54 76 -3 3 -15 21 -27 41
-19 32 -62 91 -92 126 -6 7 -29 47 -52 90 -36 67 -43 90 -50 168 -21 230 -21
234 -3 261 41 63 228 108 439 106 100 -1 144 2 157 12 10 7 16 16 12 19 -3 4
0 19 7 33 9 15 10 28 5 32 -11 8 -55 69 -55 76 0 4 37 16 69 22 7 1 19 8 25
14 18 18 -14 30 -58 23 -35 -5 -41 -3 -72 31 -19 20 -34 32 -34 27 0 -6 -12
-11 -27 -11 -53 0 -72 11 -84 47 -6 19 -17 47 -25 61 -8 15 -14 32 -14 38 0 5
-13 23 -30 39 -16 15 -28 31 -27 34 1 3 -10 22 -24 41 -15 19 -29 47 -33 62
-4 18 -15 30 -31 34 -14 3 -25 14 -25 23 -1 21 -30 56 -53 64 -10 4 -15 11
-12 17 9 15 -45 58 -82 65 -21 4 -30 10 -27 19 3 8 -8 23 -26 36 -17 12 -35
33 -40 45 -5 13 -37 38 -77 60 -37 21 -89 56 -114 79 -26 23 -81 69 -123 104
-42 35 -76 69 -76 75 0 6 -18 27 -40 47 -25 23 -41 46 -44 65 -4 28 -24 83
-48 132 -12 24 -11 26 26 131 32 88 37 185 11 211 -15 15 -18 14 -35 -6 -24
-30 -31 -29 -98 8 -115 63 -153 112 -137 177 16 63 149 197 250 251 23 12 42
31 46 44 3 14 12 21 24 20 24 -2 65 41 65 67 0 19 -66 70 -90 70 -5 0 -10 7
-10 15 0 8 -3 15 -8 15 -4 0 -16 16 -26 35 -11 19 -21 33 -24 30 -3 -2 -17 3
-31 13 -42 29 -81 46 -87 39 -6 -6 -164 72 -175 86 -4 5 -28 9 -55 9 -52 0
-172 24 -189 38 -5 4 -53 18 -105 30 -52 12 -106 28 -120 35 -14 7 -40 19 -57
25 -18 7 -33 16 -33 21 0 5 -6 9 -14 9 -7 0 -19 7 -26 15 -7 9 -32 24 -54 35
-29 13 -62 44 -109 104 -72 91 -91 102 -190 112 -22 2 -44 8 -51 13 -6 5 -29
12 -51 16 -22 4 -44 11 -50 15 -5 4 -25 11 -42 15 -18 3 -35 11 -39 16 -16 26
-92 61 -160 74 -87 17 -195 52 -307 101 -43 19 -82 34 -87 34 -6 0 -39 14 -73
30 -35 17 -69 30 -75 30 -7 0 -12 5 -12 11 0 5 -4 7 -10 4 -5 -3 -10 -1 -10 4
0 6 -9 11 -19 11 -11 0 -32 15 -48 33 -15 17 -59 62 -97 98 -56 55 -77 69
-121 79 -39 9 -62 10 -82 3 -46 -18 -280 -15 -315 3 -69 36 -148 54 -191 45
-76 -17 -200 -22 -252 -11 -27 6 -66 15 -85 19 -19 4 -59 20 -88 35 -45 23
-65 27 -122 25 -47 -1 -76 3 -92 13 -13 8 -48 23 -78 32 -30 10 -70 24 -88 33
-18 8 -43 15 -55 16 -26 1 -57 33 -57 59 0 10 -9 27 -20 38 -11 11 -20 27 -20
35 0 8 -4 15 -10 15 -5 0 -10 6 -10 14 0 22 -58 31 -78 12 -13 -11 -26 -13
-53 -7 -20 5 -62 5 -95 0 -32 -4 -84 -10 -116 -13 -31 -2 -65 -9 -75 -15 -11
-5 -31 -7 -44 -4 -13 3 -21 2 -17 -2 4 -4 3 -16 -2 -26 -7 -12 -6 -19 3 -22 7
-2 3 -8 -11 -16 -48 -26 -1684 -36 -1842 -11 -111 17 -148 16 -220 -9 -42 -15
-85 -21 -144 -21 -47 0 -97 -5 -112 -10 -15 -6 -71 -13 -123 -16 l-96 -6 -34
31 c-19 17 -40 31 -47 31 -13 0 -37 57 -29 70 7 12 -55 51 -88 55 -18 2 -53 0
-79 -5z m3032 -115 c14 -1 31 -3 39 -4 8 0 11 -4 7 -8 -10 -10 -136 -12 -136
-2 0 14 34 29 50 22 8 -3 26 -7 40 -8z m5113 -3570 c75 -18 127 -56 127 -94 0
-50 -23 -50 -126 0 -62 30 -92 65 -81 93 8 19 7 19 80 1z m344 -228 c-7 -22
-58 -20 -83 4 -29 27 -30 36 -6 41 24 5 94 -30 89 -45z m906 -2997 c9 -17 11
-32 6 -36 -5 -3 -9 0 -9 7 0 6 -7 17 -17 24 -9 7 -13 17 -9 23 10 17 13 15 29
-18z m27 -369 c0 -6 -4 -13 -10 -16 -5 -3 -10 1 -10 9 0 9 5 16 10 16 6 0 10
-4 10 -9z m-13082 -6647 c17 -8 32 -19 32 -23 0 -8 55 -34 95 -46 35 -9 85
-61 100 -104 8 -25 10 -41 4 -41 -6 0 -7 -5 -4 -10 4 -6 11 -7 17 -4 6 4 9 1
6 -7 -3 -8 -12 -13 -21 -11 -9 1 -27 -4 -40 -13 -23 -15 -26 -14 -73 25 -27
22 -52 40 -56 40 -4 0 -40 21 -80 48 -39 26 -78 52 -87 57 -8 6 -25 19 -38 30
-21 19 -21 21 -6 53 15 32 17 32 67 26 28 -3 66 -12 84 -20z m-1338 -824 c0
-5 -4 -10 -10 -10 -5 0 -10 5 -10 10 0 6 5 10 10 10 6 0 10 -4 10 -10z m354
-305 c4 -11 -2 -15 -24 -15 -22 0 -28 4 -24 15 4 8 14 15 24 15 10 0 20 -7 24
-15z m346 -349 c-15 -15 -34 9 -26 31 7 17 8 17 22 -1 9 -13 11 -23 4 -30z
m348 -92 c-3 -3 9 -21 27 -41 27 -30 40 -36 76 -37 37 -1 44 -5 62 -36 11 -19
20 -41 21 -47 1 -7 11 -22 22 -32 10 -11 32 -34 47 -53 58 -69 73 -84 114
-115 23 -18 53 -33 67 -33 14 0 26 -3 26 -7 0 -7 34 -9 77 -4 21 2 19 36 -5
56 -13 11 -24 33 -25 50 -2 27 1 30 32 33 53 5 78 -5 89 -36 10 -30 13 -31 77
-36 25 -2 41 -8 43 -17 1 -8 24 -21 50 -28 26 -8 55 -20 64 -28 9 -8 22 -12
27 -8 6 3 11 2 11 -2 0 -5 15 -7 34 -5 32 4 34 2 29 -19 -8 -27 -28 -51 -37
-42 -11 12 -33 -18 -34 -47 -1 -30 0 -30 27 -15 26 13 30 13 45 -4 11 -12 15
-27 11 -44 -4 -16 0 -35 11 -52 15 -23 16 -32 5 -60 -23 -66 20 -107 92 -87
26 7 40 7 54 -3 10 -6 37 -18 61 -26 26 -9 50 -25 60 -41 14 -24 14 -28 -2
-52 -13 -21 -22 -25 -43 -20 -14 4 -34 15 -44 25 -10 10 -31 21 -46 25 -32 8
-85 35 -95 48 -3 5 -31 11 -62 14 -48 4 -61 10 -98 44 -38 36 -49 41 -98 43
-36 1 -67 10 -90 24 -33 21 -63 22 -120 6 -8 -3 -29 9 -47 25 -17 16 -43 31
-57 34 -25 5 -64 34 -109 84 -11 12 -25 22 -31 22 -25 0 -99 45 -108 66 -10
22 -43 41 -62 36 -16 -5 -56 28 -56 46 0 10 -11 34 -25 54 -14 20 -25 41 -25
46 0 5 -13 21 -30 35 -16 15 -30 33 -30 41 0 7 -17 32 -37 56 -40 45 -48 74
-26 92 9 7 12 21 8 39 -6 25 -4 28 27 32 18 2 37 5 42 5 5 1 7 -1 4 -4z"/>
<path d="M8837 6393 c3 -32 8 -60 12 -63 11 -9 31 -49 31 -64 0 -34 67 -35 82
0 10 22 9 28 -15 50 -15 14 -27 33 -27 43 0 10 -7 25 -16 32 -9 7 -20 23 -25
36 -5 13 -17 23 -28 23 -18 0 -19 -5 -14 -57z"/>
<path d="M9004 6275 c-7 -27 9 -55 31 -55 9 0 12 10 10 30 -7 55 -30 69 -41
25z"/>
<path d="M19737 20646 c-3 -7 -17 -13 -32 -13 -33 0 -45 -12 -62 -60 -16 -47
-16 -53 -2 -53 13 0 49 38 49 51 0 5 11 11 25 15 20 5 24 11 19 26 -4 14 -2
18 5 14 7 -4 11 1 11 13 0 24 -6 27 -13 7z m-27 -36 c0 -5 -7 -10 -16 -10 -8
0 -12 5 -9 10 3 6 10 10 16 10 5 0 9 -4 9 -10z"/>
<path d="M20680 18580 c0 -5 5 -10 11 -10 5 0 7 5 4 10 -3 6 -8 10 -11 10 -2
0 -4 -4 -4 -10z"/>
<path d="M11950 17975 c-11 -13 -6 -35 8 -35 4 0 12 11 19 25 9 20 8 25 -2 25
-7 0 -18 -7 -25 -15z"/>
<path d="M11640 17737 c0 -29 4 -36 26 -41 15 -4 31 -3 36 2 16 16 -14 67 -40
70 -19 3 -22 -1 -22 -31z"/>
<path d="M21060 15340 c0 -5 5 -10 11 -10 5 0 7 5 4 10 -3 6 -8 10 -11 10 -2
0 -4 -4 -4 -10z"/>
<path d="M4455 15080 c-3 -5 -1 -10 4 -10 6 0 11 5 11 10 0 6 -2 10 -4 10 -3
0 -8 -4 -11 -10z"/>
<path d="M20460 13958 c0 -41 15 -59 25 -28 4 11 0 29 -9 42 -16 22 -16 22
-16 -14z"/>
<path d="M4361 13514 c0 -11 3 -14 6 -6 3 7 2 16 -1 19 -3 4 -6 -2 -5 -13z"/>
<path d="M17366 7757 c-10 -7 -54 -35 -98 -64 -44 -29 -88 -55 -99 -58 -10 -4
-19 -12 -19 -19 0 -7 -34 -46 -76 -86 -42 -41 -96 -99 -120 -129 -116 -146
-307 -341 -333 -341 -4 0 -13 -11 -19 -25 -11 -23 -42 -36 -42 -16 0 4 -25 3
-55 -4 -31 -8 -59 -14 -63 -14 -19 -2 -118 -35 -127 -43 -5 -4 -24 -8 -42 -8
-30 0 -190 -70 -203 -89 -3 -4 -21 -13 -40 -21 -19 -7 -46 -21 -60 -30 -14
-10 -38 -20 -55 -24 -26 -6 -100 -49 -115 -67 -7 -8 -152 -58 -235 -80 -106
-29 -163 -49 -224 -79 -60 -29 -164 -46 -406 -65 -38 -4 -122 -14 -185 -25
-165 -26 -950 -48 -1053 -29 -157 30 -168 31 -183 18 -8 -7 -30 -14 -47 -15
-18 -2 -52 -6 -77 -10 -25 -4 -60 -6 -78 -5 -18 2 -48 -4 -65 -12 -40 -19
-356 -42 -454 -33 -85 7 -44 7 -358 1 -245 -5 -335 -14 -335 -33 0 -19 53 -36
125 -39 148 -7 163 -8 159 -14 -2 -3 18 -4 44 -2 42 4 50 2 77 -26 17 -17 36
-31 43 -31 6 0 12 -3 12 -8 0 -8 187 -46 240 -48 19 0 89 -4 155 -9 66 -4 158
-9 205 -10 47 -2 139 -9 205 -15 162 -17 824 -17 1045 -1 322 23 445 39 700
91 52 10 131 24 175 31 44 6 118 22 165 35 103 30 177 48 250 63 30 7 64 21
76 32 15 14 44 22 107 29 89 10 167 32 202 56 11 8 29 14 40 14 31 0 88 23
119 48 16 12 39 22 53 22 13 0 26 7 29 15 3 8 23 19 45 25 21 6 45 18 54 27 9
8 38 27 66 40 27 14 49 29 49 33 0 5 9 12 21 15 11 4 98 82 192 174 95 92 203
196 242 232 215 198 407 404 445 479 30 59 36 116 15 140 -20 22 -60 25 -89 7z"/>
<path d="M11346 5292 c-9 -16 -78 -23 -94 -9 -11 9 -18 7 -31 -10 -15 -18 -23
-19 -67 -13 -49 8 -67 5 -48 -8 31 -20 63 -51 88 -84 30 -40 46 -48 46 -23 0
24 29 30 45 9 15 -22 9 -38 -11 -30 -8 3 -14 1 -14 -4 0 -4 22 -16 50 -25 27
-9 52 -20 55 -24 2 -5 66 -9 142 -10 347 -6 426 -10 443 -26 10 -9 36 -15 68
-15 50 0 58 6 53 34 -1 5 4 5 11 -1 7 -5 21 -13 31 -16 28 -10 22 37 -8 53
-25 13 -30 47 -10 63 14 10 -14 27 -47 27 -18 0 -28 -5 -28 -15 0 -8 -5 -15
-11 -15 -5 0 -7 5 -4 10 10 16 -58 40 -110 40 -25 0 -56 7 -68 15 -12 8 -51
16 -86 19 -35 2 -78 12 -97 22 -31 17 -34 17 -52 1 -21 -19 -42 -22 -42 -7 0
6 -11 8 -25 4 -15 -4 -25 -2 -25 5 0 6 -13 11 -28 11 -15 0 -32 4 -37 9 -15
14 -82 24 -89 13z"/>
</g>
</svg>
